<svg id="Layer_1" data-name="Layer 1" xmlns="http://www.w3.org/2000/svg" viewBox="0 0 200 200"><defs><style>.cls-1{fill:#bbbdbf;}.cls-2{fill:#8ac133;}.cls-3{fill:#53770c;}.cls-4{fill:#61a30a;}.cls-5{fill:#006738;}.cls-6{fill:#8bc543;}.cls-7{fill:#c4c4c6;}.cls-8{fill:#d6d6d6;}.cls-9{fill:#e2a540;}.cls-10{fill:#744c29;}.cls-11{fill:#d0d2d3;}.cls-12{fill:#f7f7f7;}.cls-13{fill:#e8af2e;}.cls-14{fill:#f9ca35;}.cls-15{fill:#c38728;}.cls-16{fill:#fff;}</style></defs><title>1</title><path class="cls-1" d="M90.38,95.09,77.8,78.93s.29-2.93,8.41-2.65,19.87-1.91,27.48-2.09a95.84,95.84,0,0,1,17.5,1.45L118.05,95.09Z"/><path class="cls-2" d="M99,107.17S87.7,72.74,76.76,55.4c0,0,13.13-8.58,26.21-11.6,0,0,12.7,37.74,16.81,57.89Z"/><path class="cls-3" d="M94.06,102.07s-5.47-35.8-13.42-54.7c0,0,14.36-6.31,27.76-7.15,0,0,6.35,39.31,7.1,59.87Z"/><path class="cls-4" d="M93.33,104.07s-2-36.28-8.49-56c0,0,15.93-4.54,30.26-3.75,0,0,2.6,39.87,1.22,60.41Z"/><path class="cls-2" d="M90.9,56.16S96.55,81,96.52,93.56c0,0,5.32,1.37,4.48,6.9l9.28-.07s-.85-5.87,3.35-6.59c0,0-1-33.82-2.36-40.09,0,0-4-.12-4.44-5.71,0,0-8.67.78-11.81,1.42A5.45,5.45,0,0,1,90.9,56.16Z"/><path class="cls-3" d="M110.26,76.49a6.77,6.77,0,1,1-5.55-7.81A6.78,6.78,0,0,1,110.26,76.49Z"/><path class="cls-5" d="M90.3,89l5.83.84a6,6,0,0,0-5.34-6.63Q90.61,86.15,90.3,89Z"/><path class="cls-5" d="M111.8,92.16q.47-2.89,1-5.77A6,6,0,0,0,106,91.31Z"/><path class="cls-5" d="M102.67,80.5a2,2,0,0,1,1.77,2.27,2.07,2.07,0,0,1-4.1-.59A2,2,0,0,1,102.67,80.5Z"/><path class="cls-6" d="M102.17,73.94c-.52,0-.83.35-.91,1.1s.1,1.17.57,1.23a.65.65,0,0,0,.67-.29,7.08,7.08,0,0,0,.66-1.41A3.08,3.08,0,0,1,104.27,73a2.49,2.49,0,0,1,1.69-.3,1.91,1.91,0,0,1,1.58,1.09,3,3,0,0,1,.17,2c-.41,1.71-1.36,2.57-2.87,2.6L105,77a1.44,1.44,0,0,0,1.5-1.35c.19-.86-.07-1.34-.77-1.44a.85.85,0,0,0-.75.22,4.93,4.93,0,0,0-.74,1.4,3.69,3.69,0,0,1-1.06,1.56,1.87,1.87,0,0,1-1.37.34,2,2,0,0,1-1.36-.84,2.92,2.92,0,0,1-.42-2c.15-1.67.93-2.48,2.31-2.39C102.25,73,102.21,73.46,102.17,73.94Z"/><path class="cls-6" d="M100.23,74.14c0,.46-.09.91-.13,1.37l-1.48-.17L98.71,74Z"/><path class="cls-6" d="M109.06,75.34c-.12.45-.23.9-.34,1.34l-1.45-.21c.1-.45.2-.9.31-1.35Z"/><path class="cls-7" d="M90.38,95.09,77.8,78.93s.29-5,8.41-4.72S103,78,110.58,78.34a64.31,64.31,0,0,0,20.61-2.7L118.05,95.09Z"/><path class="cls-8" d="M134,124.82c-4-9.94-10.25-20.32-16-29.73H90.38a305.88,305.88,0,0,0-15.86,29.73c-9.55,20.92-4.1,27.82,7.1,32.76,8.31,3.66,37,3.66,45.32,0C138.14,152.64,141,141.86,134,124.82Z"/><path class="cls-9" d="M109.27,122.6q-.26-3-5.52-3t-5.3,2.8a2.61,2.61,0,0,0,1.69,2.51A36.41,36.41,0,0,0,107,126.7q5.15,1,7.55,3.33a7.9,7.9,0,0,1,2.39,6,7.4,7.4,0,0,1-3.89,6.67,16.68,16.68,0,0,1-8.86,2.33q-12.06,0-13.71-9.29l6.66-.51q.72,4.84,7.11,4.87c4,0,6-1.33,6-4a2.91,2.91,0,0,0-1.44-2.69q-1.45-.88-6.82-1.95t-7.74-3.23a6.93,6.93,0,0,1-2.36-5.37A7.2,7.2,0,0,1,95,117q3.08-2.37,8.92-2.35,11.58,0,12.12,7.72Z"/><rect class="cls-9" x="101.29" y="109.25" width="5.77" height="6.34" transform="translate(-8.64 216.16) rotate(-89.78)"/><rect class="cls-9" x="101.17" y="143.66" width="5.77" height="6.34" transform="translate(-43.16 250.33) rotate(-89.78)"/><path class="cls-10" d="M120.61,95.69a1.13,1.13,0,0,1-1.23,1H88.65a1.13,1.13,0,0,1-1.23-1v-.82a1.13,1.13,0,0,1,1.23-1h30.73a1.13,1.13,0,0,1,1.23,1Z"/><path class="cls-11" d="M112.08,155.9c5.11,3.68,14.24.55,17.62-1.85,4.7-3.33,6.85-10,6.31-14.73a38.87,38.87,0,0,0-3.2-12.4,21.13,21.13,0,0,1-1.33,13.38c-2.73,6.41-10.64,8-15.88,8.64C111.94,149.35,107,152.23,112.08,155.9Z"/><path class="cls-11" d="M109,93s9.68-3.52,14.46-8.44C128.82,79,118.12,93,118.12,93Z"/><path class="cls-12" d="M81.51,80.1s.18.14.48.41.71.65,1.19,1.13a40,40,0,0,1,3.2,3.73,38.63,38.63,0,0,1,2.73,4.08c.34.58.6,1.08.77,1.44s.26.57.26.57-.18-.14-.48-.4-.71-.65-1.18-1.13a35.74,35.74,0,0,1-3.2-3.73,39.92,39.92,0,0,1-2.74-4.08c-.33-.59-.59-1.09-.77-1.45S81.51,80.1,81.51,80.1Z"/><path class="cls-12" d="M91.18,98.72s-.15.47-.46,1.28-.74,2-1.31,3.31c-1.13,2.72-2.77,6.28-4.54,9.78s-3.66,6.93-5.19,9.45c-.76,1.26-1.42,2.3-1.9,3s-.76,1.12-.76,1.12.15-.47.46-1.28.74-2,1.31-3.31c1.12-2.73,2.77-6.29,4.54-9.78s3.67-6.93,5.2-9.45c.75-1.26,1.42-2.3,1.89-3S91.18,98.72,91.18,98.72Z"/><path class="cls-13" d="M89.82,151a13.27,13.27,0,1,1-8.95-16.49A13.27,13.27,0,0,1,89.82,151Z"/><path class="cls-14" d="M87.52,150.3a10.87,10.87,0,1,1-7.33-13.51A10.86,10.86,0,0,1,87.52,150.3Z"/><path class="cls-15" d="M80.22,145q.25-1.25-1.89-1.89c-1.44-.43-2.27-.26-2.5.51a1.09,1.09,0,0,0,.38,1.22,14.8,14.8,0,0,0,2.58,1.56,6.3,6.3,0,0,1,2.68,2.27,3.39,3.39,0,0,1,.25,2.75,3.15,3.15,0,0,1-2.39,2.25,7.12,7.12,0,0,1-3.9-.12q-4.92-1.47-4.47-5.45l2.77.6c-.19,1.37.58,2.32,2.32,2.84s2.61.18,2.94-.92a1.25,1.25,0,0,0-.27-1.27,10.81,10.81,0,0,0-2.54-1.62,6.9,6.9,0,0,1-2.77-2.25,3,3,0,0,1-.32-2.48,3.07,3.07,0,0,1,2-2,6.07,6.07,0,0,1,3.93.12q4.71,1.41,4,4.61Z"/><rect class="cls-15" x="78.14" y="138.9" width="2.45" height="2.7" transform="translate(-77.78 175.94) rotate(-73.29)"/><rect class="cls-15" x="73.94" y="152.93" width="2.45" height="2.7" transform="translate(-94.21 181.89) rotate(-73.28)"/><path class="cls-16" d="M66.84,144.38a6.19,6.19,0,0,1,.81-3,6.27,6.27,0,0,1,3-.8,5.79,5.79,0,0,1-3-.8,5.6,5.6,0,0,1-.81-3,5.57,5.57,0,0,1-.85,3,5.26,5.26,0,0,1-2.92.75,5.79,5.79,0,0,1,3,.8A5.73,5.73,0,0,1,66.84,144.38Z"/><path class="cls-16" d="M69.36,145a2.24,2.24,0,0,1,.29-1.06,2.22,2.22,0,0,1,1.06-.28,2.06,2.06,0,0,1-1.06-.29,2,2,0,0,1-.29-1.06,2,2,0,0,1-.3,1.08,1.92,1.92,0,0,1-1,.27,2.07,2.07,0,0,1,1.06.28A2.07,2.07,0,0,1,69.36,145Z"/><path class="cls-16" d="M64.45,147.8a3,3,0,0,1,.39-1.46,3,3,0,0,1,1.47-.4,2.83,2.83,0,0,1-1.47-.4,2.81,2.81,0,0,1-.39-1.47,2.7,2.7,0,0,1-.43,1.5,2.57,2.57,0,0,1-1.44.37,2.77,2.77,0,0,1,1.47.4A2.76,2.76,0,0,1,64.45,147.8Z"/></svg>