<svg xmlns="http://www.w3.org/2000/svg" viewBox="0 0 200 200"><defs><style>.cls-1{isolation:isolate;}.cls-2{fill:#fff;}.cls-3{fill:#567c56;}.cls-4{fill:#ccc;}.cls-5{fill:#f2f2f2;}.cls-6{fill:#b3b3b3;}.cls-7{fill:#c9a50d;}.cls-8{fill:#b89a13;}.cls-9{fill:#bd9e15;}.cls-10{fill:#409a8d;}.cls-11{fill:#f9f21e;}.cls-12{fill:#d7c816;}.cls-13{fill:#dbc6b8;}.cls-14{fill:#a06b3f;}.cls-15{fill:#6ebcd2;}.cls-16{fill:#7cc3bc;}.cls-17{fill:#d6bbab;}.cls-18{fill:#1e0303;}.cls-19{fill:#e7ccbc;}.cls-20{fill:#bababa;opacity:0.63;mix-blend-mode:multiply;}</style></defs><title>5</title><g class="cls-1"><g id="Layer_1" data-name="Layer 1"><rect class="cls-2" x="90.73" y="97.85" width="72.42" height="25.23" transform="matrix(0.94, -0.33, 0.33, 0.94, -29.38, 48.18)"/><path class="cls-3" d="M154.83,89.22,92,111.24a2.05,2.05,0,0,0-.2.39l6.94,19.86c.14.06.27.13.41.18l62.84-22a2.56,2.56,0,0,0,.21-.4l-7-19.86A2.87,2.87,0,0,0,154.83,89.22Zm2.85,15.48a3.56,3.56,0,0,0-2.29,4.49L104,127.2a3.58,3.58,0,0,0-4.61-2.08l-3.12-8.93a3.58,3.58,0,0,0,2.3-4.5l51.39-18a3.59,3.59,0,0,0,4.6,2.08Z"/><rect class="cls-4" x="95.87" y="122.2" width="72.42" height="5.91" transform="translate(-33.95 50.7) rotate(-19.31)"/><rect class="cls-5" x="114.36" y="98.06" width="23.91" height="25.23" transform="matrix(0.94, -0.33, 0.33, 0.94, -29.49, 47.99)"/><rect class="cls-6" x="119.5" y="122.42" width="23.91" height="5.91" transform="translate(-34.06 50.52) rotate(-19.31)"/><rect class="cls-7" x="116.64" y="100.89" width="3.22" height="25.23" transform="translate(-30.86 45.44) rotate(-19.29)"/><rect class="cls-7" x="133" y="95.16" width="3.22" height="25.23" transform="translate(-28.06 50.56) rotate(-19.3)"/><rect class="cls-8" x="121.77" y="125.25" width="3.22" height="5.9" transform="translate(-35.44 47.99) rotate(-19.3)"/><rect class="cls-9" x="138.14" y="119.51" width="3.22" height="5.9" transform="translate(-32.66 53.17) rotate(-19.33)"/><path class="cls-3" d="M113.46,115.18a3.86,3.86,0,1,1-4.72-1.9A3.61,3.61,0,0,1,113.46,115.18Z"/><path class="cls-10" d="M146.87,103.48a3.86,3.86,0,1,1-4.72-1.9A3.62,3.62,0,0,1,146.87,103.48Z"/><rect class="cls-2" x="88.2" y="81.47" width="72.41" height="25.23"/><path class="cls-3" d="M157.75,83.26H91.15a2.27,2.27,0,0,0-.31.31v21a3.11,3.11,0,0,0,.32.31h66.58a2.42,2.42,0,0,0,.33-.31v-21A3.11,3.11,0,0,0,157.75,83.26Zm-2.42,15.55a3.57,3.57,0,0,0-3.65,3.49H97.23a3.58,3.58,0,0,0-3.66-3.49V89.35a3.57,3.57,0,0,0,3.66-3.48h54.45a3.56,3.56,0,0,0,3.65,3.48Z"/><rect class="cls-4" x="88.2" y="106.7" width="72.41" height="5.9"/><rect class="cls-5" x="111.8" y="81.47" width="23.91" height="25.23"/><rect class="cls-6" x="111.8" y="106.7" width="23.91" height="5.9"/><rect class="cls-7" x="113.59" y="81.47" width="3.22" height="25.23"/><rect class="cls-7" x="130.93" y="81.47" width="3.22" height="25.23"/><rect class="cls-8" x="113.59" y="106.7" width="3.22" height="5.9"/><rect class="cls-9" x="130.93" y="106.7" width="3.22" height="5.9"/><path class="cls-3" d="M110.12,94.09a3.85,3.85,0,1,1-3.82-3.36A3.61,3.61,0,0,1,110.12,94.09Z"/><path class="cls-3" d="M145.52,94.09a3.85,3.85,0,1,1-3.82-3.36A3.61,3.61,0,0,1,145.52,94.09Z"/><path class="cls-11" d="M128.37,143.55a8.65,8.65,0,0,1-3.29,6.1,13.93,13.93,0,0,1-13.54,1.91,12,12,0,0,1-3-1.71,8.65,8.65,0,0,1-3.54-6.29,8.48,8.48,0,0,1,3.29-7.07,13.76,13.76,0,0,1,16.55-.2A8.56,8.56,0,0,1,128.37,143.55Z"/><path class="cls-12" d="M125.08,150.6a13.84,13.84,0,0,1-13.54,1.91,12.23,12.23,0,0,1-3-1.7,8.56,8.56,0,0,1-3.54-7.25,8.65,8.65,0,0,0,3.54,6.29,12,12,0,0,0,3,1.71,13.93,13.93,0,0,0,13.54-1.91,8.65,8.65,0,0,0,3.29-6.1A8.47,8.47,0,0,1,125.08,150.6Z"/><path class="cls-12" d="M123.61,148.5a11.34,11.34,0,0,1-13.65.17c-3.83-3-3.92-7.94-.21-11a11.37,11.37,0,0,1,13.66-.16A6.79,6.79,0,0,1,123.61,148.5Z"/><path class="cls-11" d="M119.5,145.83a2.2,2.2,0,0,1-1.31,1.29,3.62,3.62,0,0,1-1.65.22l-.55-.06-.32.84-1.5-.38.33-.87a3.56,3.56,0,0,1-1-.59,2.29,2.29,0,0,1-.75-1.07,2.23,2.23,0,0,1,0-1.28l2,.41a1.42,1.42,0,0,0,.24,1.21,1.35,1.35,0,0,0,.76.44,1.82,1.82,0,0,0,1.25-.13.87.87,0,0,0,.41-.5c.13-.34,0-.74-.38-1.21s-.8-.83-1.44-1.5a5.18,5.18,0,0,1-1-1.44,1.69,1.69,0,0,1,0-1.27,2.27,2.27,0,0,1,1.92-1.38,4.25,4.25,0,0,1,1.29,0l.33-.84,1.5.37-.33.84a4,4,0,0,1,1,.55,2.18,2.18,0,0,1,.75.89,1.7,1.7,0,0,1,.09,1.07l-2.07-.28a1.09,1.09,0,0,0-.18-.91,1.28,1.28,0,0,0-.75-.41,1.34,1.34,0,0,0-1,.08,1.06,1.06,0,0,0-.47.55,1.45,1.45,0,0,0,.37,1.35,6.51,6.51,0,0,0,.72.76c.39.36.64.6.76.74a3.74,3.74,0,0,1,1,1.67A1.56,1.56,0,0,1,119.5,145.83Z"/><path class="cls-11" d="M128.37,140.94a8.65,8.65,0,0,1-3.29,6.1A13.93,13.93,0,0,1,111.54,149a12,12,0,0,1-3-1.71A8.65,8.65,0,0,1,105,141a8.48,8.48,0,0,1,3.29-7.07,13.76,13.76,0,0,1,16.55-.2A8.56,8.56,0,0,1,128.37,140.94Z"/><path class="cls-12" d="M125.08,148a13.86,13.86,0,0,1-13.54,1.9,12.23,12.23,0,0,1-3-1.7A8.56,8.56,0,0,1,105,141a8.65,8.65,0,0,0,3.54,6.29,12,12,0,0,0,3,1.71A13.93,13.93,0,0,0,125.08,147a8.65,8.65,0,0,0,3.29-6.1A8.5,8.5,0,0,1,125.08,148Z"/><path class="cls-12" d="M123.61,145.89a11.34,11.34,0,0,1-13.65.17c-3.83-3-3.92-7.94-.21-11a11.37,11.37,0,0,1,13.66-.16A6.79,6.79,0,0,1,123.61,145.89Z"/><path class="cls-11" d="M119.5,143.22a2.2,2.2,0,0,1-1.31,1.29,3.62,3.62,0,0,1-1.65.22l-.55-.06-.32.84-1.5-.38.33-.86a3.82,3.82,0,0,1-1-.6,2.31,2.31,0,0,1-.75-1.06,2.26,2.26,0,0,1,0-1.29l2,.41a1.42,1.42,0,0,0,.24,1.21,1.35,1.35,0,0,0,.76.44,1.82,1.82,0,0,0,1.25-.13.87.87,0,0,0,.41-.5c.13-.34,0-.74-.38-1.21s-.8-.83-1.44-1.5a5.18,5.18,0,0,1-1-1.44,1.69,1.69,0,0,1,0-1.27,2.27,2.27,0,0,1,1.92-1.38,4.25,4.25,0,0,1,1.29,0l.33-.84,1.5.37-.33.84a4.31,4.31,0,0,1,1,.55,2.24,2.24,0,0,1,.75.89,1.7,1.7,0,0,1,.09,1.07l-2.07-.28a1.09,1.09,0,0,0-.18-.91,1.28,1.28,0,0,0-.75-.41,1.34,1.34,0,0,0-1,.08,1.06,1.06,0,0,0-.47.55,1.45,1.45,0,0,0,.37,1.35,6.51,6.51,0,0,0,.72.76,9.33,9.33,0,0,1,.76.74,3.74,3.74,0,0,1,1,1.67A1.56,1.56,0,0,1,119.5,143.22Z"/><path class="cls-11" d="M125.42,140a8.64,8.64,0,0,1-3.28,6.1A13.93,13.93,0,0,1,108.6,148a12,12,0,0,1-3-1.71,8.67,8.67,0,0,1-3.53-6.29,8.49,8.49,0,0,1,3.29-7.07,13.76,13.76,0,0,1,16.55-.2A8.56,8.56,0,0,1,125.42,140Z"/><path class="cls-12" d="M122.14,147a13.86,13.86,0,0,1-13.54,1.9,12.29,12.29,0,0,1-3-1.7,8.58,8.58,0,0,1-3.53-7.25,8.67,8.67,0,0,0,3.53,6.29,12,12,0,0,0,3,1.71,13.93,13.93,0,0,0,13.54-1.91,8.64,8.64,0,0,0,3.28-6.1A8.49,8.49,0,0,1,122.14,147Z"/><path class="cls-12" d="M120.67,144.93a11.36,11.36,0,0,1-13.66.17,6.8,6.8,0,0,1-.21-11,11.37,11.37,0,0,1,13.66-.16A6.78,6.78,0,0,1,120.67,144.93Z"/><path class="cls-11" d="M116.56,142.26a2.22,2.22,0,0,1-1.31,1.29,3.62,3.62,0,0,1-1.65.22l-.55-.06-.32.84-1.5-.38.33-.86a3.66,3.66,0,0,1-1-.6,2.26,2.26,0,0,1-.76-1.06,2.18,2.18,0,0,1,0-1.29l2,.41A1.42,1.42,0,0,0,112,142a1.35,1.35,0,0,0,.76.44,1.83,1.83,0,0,0,1.25-.13.88.88,0,0,0,.41-.49,1.23,1.23,0,0,0-.39-1.22l-1.44-1.5a5.63,5.63,0,0,1-1-1.44,1.69,1.69,0,0,1,0-1.27,2.26,2.26,0,0,1,1.91-1.38,4.32,4.32,0,0,1,1.3,0l.32-.84,1.5.37-.32.84a4.31,4.31,0,0,1,1,.55,2.14,2.14,0,0,1,.74.89,1.63,1.63,0,0,1,.09,1.07l-2.06-.28a1.09,1.09,0,0,0-.18-.91,1.28,1.28,0,0,0-.75-.41,1.34,1.34,0,0,0-1,.08,1.06,1.06,0,0,0-.47.55,1.42,1.42,0,0,0,.37,1.35,5.74,5.74,0,0,0,.72.76c.39.36.64.6.76.74a4.89,4.89,0,0,1,.84,1.2,2.91,2.91,0,0,1,.16.47A1.48,1.48,0,0,1,116.56,142.26Z"/><path class="cls-11" d="M128.37,138.19a8.65,8.65,0,0,1-3.29,6.1,13.45,13.45,0,0,1-10,2.78,13.09,13.09,0,0,1-3.51-.87,12.11,12.11,0,0,1-3-1.7,8.76,8.76,0,0,1-3.54-6.3,8.46,8.46,0,0,1,3.29-7.06,13.77,13.77,0,0,1,16.56-.21A8.56,8.56,0,0,1,128.37,138.19Z"/><path class="cls-12" d="M125.08,145.25a13.45,13.45,0,0,1-10,2.78,13.89,13.89,0,0,1-3.51-.87,11.84,11.84,0,0,1-3-1.71A8.54,8.54,0,0,1,105,138.2a8.76,8.76,0,0,0,3.54,6.3,12.11,12.11,0,0,0,3,1.7,13.09,13.09,0,0,0,3.51.87,13.45,13.45,0,0,0,10-2.78,8.65,8.65,0,0,0,3.29-6.1A8.46,8.46,0,0,1,125.08,145.25Z"/><path class="cls-12" d="M123.62,143.15a11.37,11.37,0,0,1-13.66.16,6.79,6.79,0,0,1-.21-11,11.38,11.38,0,0,1,13.66-.16A6.8,6.8,0,0,1,123.62,143.15Z"/><path class="cls-11" d="M119.51,140.47a2.22,2.22,0,0,1-1.31,1.29,3.65,3.65,0,0,1-1.65.23,3.6,3.6,0,0,1-.55-.07l-.32.84-1.5-.37.33-.87a3.73,3.73,0,0,1-1-.6,2.31,2.31,0,0,1-.75-1.06,2.23,2.23,0,0,1,0-1.28l2,.4a1.42,1.42,0,0,0,.23,1.21,1.38,1.38,0,0,0,.77.44,1.74,1.74,0,0,0,1.24-.13.86.86,0,0,0,.42-.49,1.24,1.24,0,0,0-.39-1.21l-1.44-1.51a5.54,5.54,0,0,1-1-1.43,1.72,1.72,0,0,1,0-1.28,2.26,2.26,0,0,1,1.91-1.38,4.33,4.33,0,0,1,1.3,0l.32-.85,1.5.38-.32.84a4.49,4.49,0,0,1,1.05.54,2.14,2.14,0,0,1,.74.89,1.64,1.64,0,0,1,.09,1.07l-2.07-.28a1.1,1.1,0,0,0-.18-.91,1.3,1.3,0,0,0-.74-.41,1.34,1.34,0,0,0-1,.09,1,1,0,0,0-.48.54,1.47,1.47,0,0,0,.37,1.35,6.51,6.51,0,0,0,.72.76,9.33,9.33,0,0,1,.76.74,4.66,4.66,0,0,1,.84,1.21,3,3,0,0,1,.17.46A1.67,1.67,0,0,1,119.51,140.47Z"/><path class="cls-11" d="M124.47,136.14a8.65,8.65,0,0,1-3.29,6.1,13.45,13.45,0,0,1-10,2.78,13.25,13.25,0,0,1-3.52-.87,12.23,12.23,0,0,1-3-1.7,8.76,8.76,0,0,1-3.54-6.3,8.46,8.46,0,0,1,3.29-7.06,13.76,13.76,0,0,1,16.55-.21A8.57,8.57,0,0,1,124.47,136.14Z"/><path class="cls-12" d="M121.18,143.2a13.45,13.45,0,0,1-10,2.78,13.65,13.65,0,0,1-3.52-.87,12,12,0,0,1-3-1.71,8.54,8.54,0,0,1-3.54-7.25,8.76,8.76,0,0,0,3.54,6.3,12.23,12.23,0,0,0,3,1.7,13.25,13.25,0,0,0,3.52.87,13.45,13.45,0,0,0,10-2.78,8.65,8.65,0,0,0,3.29-6.1A8.49,8.49,0,0,1,121.18,143.2Z"/><path class="cls-12" d="M119.72,141.1a11.37,11.37,0,0,1-13.66.16,6.78,6.78,0,0,1-.21-11,11.37,11.37,0,0,1,13.66-.17A6.8,6.8,0,0,1,119.72,141.1Z"/><path class="cls-11" d="M115.6,138.42a2.17,2.17,0,0,1-1.31,1.29,3.61,3.61,0,0,1-1.65.23,3.94,3.94,0,0,1-.55-.07l-.32.85-1.5-.38.33-.87a3.57,3.57,0,0,1-1-.6,2.26,2.26,0,0,1-.75-1.06,2.23,2.23,0,0,1,0-1.28l2,.41a1.37,1.37,0,0,0,.23,1.2,1.35,1.35,0,0,0,.77.44,1.75,1.75,0,0,0,1.24-.13.85.85,0,0,0,.41-.49c.14-.34,0-.74-.38-1.21l-1.44-1.51a5.31,5.31,0,0,1-1-1.43,1.69,1.69,0,0,1,0-1.27,2.28,2.28,0,0,1,1.92-1.39,4.27,4.27,0,0,1,1.29,0l.33-.85,1.5.38-.33.84a4.3,4.3,0,0,1,1,.54,2.24,2.24,0,0,1,.75.89,1.7,1.7,0,0,1,.09,1.07l-2.07-.28a1.1,1.1,0,0,0-.18-.91,1.33,1.33,0,0,0-.75-.41,1.32,1.32,0,0,0-1,.09,1,1,0,0,0-.48.54,1.44,1.44,0,0,0,.37,1.35,5.8,5.8,0,0,0,.72.76c.39.36.65.61.76.74a4.66,4.66,0,0,1,.84,1.21,4.51,4.51,0,0,1,.17.46A1.56,1.56,0,0,1,115.6,138.42Z"/><path class="cls-11" d="M154.32,138.19a8.6,8.6,0,0,1-3.28,6.1,13.46,13.46,0,0,1-10,2.78,13.16,13.16,0,0,1-3.52-.87,12.23,12.23,0,0,1-3-1.7,8.69,8.69,0,0,1-3.54-6.3,8.46,8.46,0,0,1,3.29-7.06,13.76,13.76,0,0,1,16.55-.21A8.56,8.56,0,0,1,154.32,138.19Z"/><path class="cls-12" d="M151,145.25A13.46,13.46,0,0,1,141,148a14,14,0,0,1-3.52-.87,12,12,0,0,1-3-1.71A8.54,8.54,0,0,1,131,138.2a8.69,8.69,0,0,0,3.54,6.3,12.23,12.23,0,0,0,3,1.7,13.16,13.16,0,0,0,3.52.87,13.46,13.46,0,0,0,10-2.78,8.6,8.6,0,0,0,3.28-6.1A8.48,8.48,0,0,1,151,145.25Z"/><path class="cls-12" d="M149.57,143.15a11.37,11.37,0,0,1-13.66.16,6.8,6.8,0,0,1-.2-11,11.38,11.38,0,0,1,13.66-.16A6.8,6.8,0,0,1,149.57,143.15Z"/><path class="cls-11" d="M145.46,140.47a2.22,2.22,0,0,1-1.31,1.29,3.61,3.61,0,0,1-1.65.23,3.76,3.76,0,0,1-.55-.07l-.32.84-1.5-.37.33-.87a3.82,3.82,0,0,1-1-.6,2.26,2.26,0,0,1-.76-1.06,2.32,2.32,0,0,1,0-1.28l2,.4a1.42,1.42,0,0,0,.24,1.21,1.35,1.35,0,0,0,.76.44,1.77,1.77,0,0,0,1.25-.13.88.88,0,0,0,.41-.49,1.21,1.21,0,0,0-.39-1.21l-1.44-1.51a5.8,5.8,0,0,1-1-1.43,1.77,1.77,0,0,1,0-1.28,2.28,2.28,0,0,1,1.92-1.38,4.26,4.26,0,0,1,1.29,0l.32-.85,1.51.38-.33.84a4.3,4.3,0,0,1,1.05.54,2.14,2.14,0,0,1,.74.89,1.7,1.7,0,0,1,.1,1.07l-2.07-.28a1.1,1.1,0,0,0-.18-.91,1.58,1.58,0,0,0-1.73-.32,1,1,0,0,0-.47.54,1.41,1.41,0,0,0,.37,1.35,6.51,6.51,0,0,0,.72.76c.39.36.64.61.76.74a4.93,4.93,0,0,1,.84,1.21,4.51,4.51,0,0,1,.17.46A1.56,1.56,0,0,1,145.46,140.47Z"/><path class="cls-11" d="M152.87,134.34a8.65,8.65,0,0,1-3.29,6.1,13.45,13.45,0,0,1-10,2.78,13.25,13.25,0,0,1-3.52-.87,12.23,12.23,0,0,1-3-1.7,8.76,8.76,0,0,1-3.54-6.3,8.46,8.46,0,0,1,3.29-7.06,13.76,13.76,0,0,1,16.56-.21A8.58,8.58,0,0,1,152.87,134.34Z"/><path class="cls-12" d="M149.58,141.4a13.49,13.49,0,0,1-10,2.78,14.07,14.07,0,0,1-3.52-.87,12,12,0,0,1-3-1.71,8.54,8.54,0,0,1-3.54-7.25,8.76,8.76,0,0,0,3.54,6.3,12.23,12.23,0,0,0,3,1.7,13.25,13.25,0,0,0,3.52.87,13.45,13.45,0,0,0,10-2.78,8.65,8.65,0,0,0,3.29-6.1A8.49,8.49,0,0,1,149.58,141.4Z"/><path class="cls-12" d="M148.12,139.29a11.36,11.36,0,0,1-13.66.17,6.79,6.79,0,0,1-.21-11,11.37,11.37,0,0,1,13.66-.16A6.79,6.79,0,0,1,148.12,139.29Z"/><path class="cls-11" d="M144,136.62a2.17,2.17,0,0,1-1.31,1.29,3.75,3.75,0,0,1-1.65.23l-.55-.07-.32.84-1.5-.37.33-.87a3.82,3.82,0,0,1-1-.6,2.31,2.31,0,0,1-.75-1.06,2.23,2.23,0,0,1,0-1.28l2,.4a1.27,1.27,0,0,0,1,1.65,1.74,1.74,0,0,0,1.24-.13.85.85,0,0,0,.41-.49c.14-.35,0-.75-.38-1.22l-1.44-1.5A5.18,5.18,0,0,1,139,132a1.69,1.69,0,0,1,0-1.27,2.27,2.27,0,0,1,1.92-1.38,4.27,4.27,0,0,1,1.29,0l.33-.85,1.5.37-.33.85a4.3,4.3,0,0,1,1.05.54,2.24,2.24,0,0,1,.75.89,1.7,1.7,0,0,1,.09,1.07l-2.07-.28a1.1,1.1,0,0,0-.18-.91,1.33,1.33,0,0,0-.75-.41,1.27,1.27,0,0,0-1,.09,1,1,0,0,0-.48.54,1.47,1.47,0,0,0,.37,1.35,6.51,6.51,0,0,0,.72.76,9.33,9.33,0,0,1,.76.74,4.81,4.81,0,0,1,.84,1.2,4.61,4.61,0,0,1,.17.47A1.56,1.56,0,0,1,144,136.62Z"/><path class="cls-11" d="M158,134.34a8.6,8.6,0,0,1-3.28,6.1,13.45,13.45,0,0,1-10,2.78,13.16,13.16,0,0,1-3.52-.87,12.23,12.23,0,0,1-3-1.7,8.69,8.69,0,0,1-3.54-6.3,8.46,8.46,0,0,1,3.29-7.06,13.74,13.74,0,0,1,16.55-.21A8.53,8.53,0,0,1,158,134.34Z"/><path class="cls-12" d="M154.72,141.4a13.49,13.49,0,0,1-10,2.78,14,14,0,0,1-3.52-.87,12,12,0,0,1-3-1.71,8.54,8.54,0,0,1-3.54-7.25,8.69,8.69,0,0,0,3.54,6.3,12.23,12.23,0,0,0,3,1.7,13.16,13.16,0,0,0,3.52.87,13.45,13.45,0,0,0,10-2.78,8.6,8.6,0,0,0,3.28-6.1A8.48,8.48,0,0,1,154.72,141.4Z"/><path class="cls-12" d="M153.25,139.29a11.34,11.34,0,0,1-13.65.17,6.79,6.79,0,0,1-.21-11,11.37,11.37,0,0,1,13.66-.16A6.79,6.79,0,0,1,153.25,139.29Z"/><path class="cls-11" d="M149.14,136.62a2.2,2.2,0,0,1-1.31,1.29,3.75,3.75,0,0,1-1.65.23l-.55-.07-.32.84-1.5-.37.33-.87a3.82,3.82,0,0,1-1-.6,2.31,2.31,0,0,1-.75-1.06,2.23,2.23,0,0,1,0-1.28l2,.4a1.42,1.42,0,0,0,.24,1.21,1.35,1.35,0,0,0,.76.44,1.77,1.77,0,0,0,1.25-.13.85.85,0,0,0,.41-.49,1.24,1.24,0,0,0-.38-1.22l-1.44-1.5a5.18,5.18,0,0,1-1-1.44,1.69,1.69,0,0,1,0-1.27,2.27,2.27,0,0,1,1.92-1.38,4.27,4.27,0,0,1,1.29,0l.33-.85,1.5.37-.33.85a4.3,4.3,0,0,1,1,.54,2.24,2.24,0,0,1,.75.89,1.7,1.7,0,0,1,.09,1.07l-2.07-.28a1.1,1.1,0,0,0-.18-.91,1.33,1.33,0,0,0-.75-.41,1.3,1.3,0,0,0-1,.09,1,1,0,0,0-.47.54,1.45,1.45,0,0,0,.37,1.35,6.51,6.51,0,0,0,.72.76c.39.36.64.6.76.74a4.81,4.81,0,0,1,.84,1.2,4.61,4.61,0,0,1,.17.47A1.56,1.56,0,0,1,149.14,136.62Z"/><path class="cls-13" d="M88.48,59.2A3.24,3.24,0,0,1,88,60.75h0A6.38,6.38,0,0,1,85.82,63h0a6.47,6.47,0,0,1-3,.95A6.56,6.56,0,0,1,81,63.82h0l-4.42-1.21-.88-.24-.11,0a3.6,3.6,0,0,1-1-.48l-.23-.17a3.5,3.5,0,0,1,2-6.23h0a3.2,3.2,0,0,1,1.06.12L84,57.37l2.79.76A3.46,3.46,0,0,1,88.48,59.2Z"/><path class="cls-14" d="M103.13,106.7a23.74,23.74,0,0,1-.91,6.79c-3.07,10.62-13.66,14.7-25.47,14.7h-.81c-11.43-.13-26.12-3.17-26.12-21.35,0-7.18,5.71-12.8,10.86-18.2l1.14-1.21a36.67,36.67,0,0,0,3.53-4.08c2.19-2.86,6-15.21,6-20.35a11.72,11.72,0,0,0,0-2.22l-.24-1.27a13.12,13.12,0,0,0-.63-2c-.08-.22-.34-1-.43-1.23-1.3-3.06-3-6-2.51-8.75a13.65,13.65,0,0,0,2.16.69c.25-.34,2.65-1.37,2.89-1.72,1.69-.34,2.17,2.07,3.62,2.07,2.17,0,4.34-4.14,5.3,1.38,2.17-2.69,3.12-1.29,4.17.18.69,1,1.42,2,2.58,1.88a15.42,15.42,0,0,0-2.7,4.81,1.59,1.59,0,0,1-.07.2,14.93,14.93,0,0,0-.61,3c1,6.82-1.09,18.89,4.56,25.42C94.78,90.89,103.13,99,103.13,106.7Z"/><polygon class="cls-15" points="78.76 60.77 78.76 60.78 77.03 60.78 74.11 60.77 78.76 60.77"/><path class="cls-16" d="M84.88,61.79c0,.49,0,1,0,1.61a6.24,6.24,0,0,1-1.85-.16h0L78.64,62l-1.16.46-6.19,2.45a18.76,18.76,0,0,0,.1-4.17H84.94A9.2,9.2,0,0,0,84.88,61.79Z"/><path class="cls-17" d="M74.82,61.32a2.69,2.69,0,0,0-.26.54l-.23-.17A3,3,0,0,1,74.82,61.32Z"/><path class="cls-11" d="M84,110.84a6,6,0,0,1-1.63,4.33,6.07,6.07,0,0,1-3.12,1.72,9.47,9.47,0,0,1-1.15.2v2.47H74.79V117a6.89,6.89,0,0,1-2.5-.91A6.16,6.16,0,0,1,70,113.72a8,8,0,0,1-1-3.44L73.3,110a4.78,4.78,0,0,0,1.39,3.07,2.56,2.56,0,0,0,1.87.68,2.94,2.94,0,0,0,2.38-1.18,2.48,2.48,0,0,0,.45-1.6,4.13,4.13,0,0,0-1.7-3l-4-3.09a14.71,14.71,0,0,1-3.18-3.16,6.12,6.12,0,0,1-1-3.41,5.51,5.51,0,0,1,2.76-5,6.93,6.93,0,0,1,2.58-.9V90h3.28v2.48a8,8,0,0,1,2.5.76,5.62,5.62,0,0,1,2.17,1.9,5.92,5.92,0,0,1,1,2.81l-4.34.63a3.81,3.81,0,0,0-1.05-2.33,2.55,2.55,0,0,0-1.8-.6,2.19,2.19,0,0,0-1.89.89,2.94,2.94,0,0,0-.53,1.78,4.84,4.84,0,0,0,1.77,3.38,14.05,14.05,0,0,0,2,1.56A22.37,22.37,0,0,1,80,104.71a13.09,13.09,0,0,1,2.59,2.67,9.37,9.37,0,0,1,.69,1.14A5.56,5.56,0,0,1,84,110.84Z"/><rect class="cls-2" x="47.76" y="62.48" width="5.14" height="22.76"/><rect class="cls-18" x="33.73" y="59.72" width="15.06" height="27.83"/><path class="cls-19" d="M82.15,73v.46H92.44a2.95,2.95,0,0,1,0,5.89H82.15v.46h7.49a2.95,2.95,0,0,1,0,5.89H73.18l-.92,0h0c-.45,0-.93,0-1.44-.1l-.3,0a22.26,22.26,0,0,1-7.71-2.14c-2.36-1.18-8.19-.37-9.9-.09V64.27h0a33.53,33.53,0,0,0,5.22-.36c3.06-.51,3.29-2.2,6.74-3.92a4.15,4.15,0,0,1,.32-.27,3.57,3.57,0,0,1,.79-.44l2.71-1.07,1.83-.72a14.23,14.23,0,0,1,.85,3.29H91.23a2.94,2.94,0,0,1,0,5.88H82.15v.47H94.21a2.95,2.95,0,1,1,0,5.89Z"/><path class="cls-20" d="M90.22,86.2,82.1,94.33l-3,3-3.75,3.75L72.48,104,55,121.48c-3.16-3.2-5.18-7.86-5.18-14.63,0-7.17,5.7-12.79,10.87-18.21l1.13-1.2a36,36,0,0,0,2.84-3.19,23.71,23.71,0,0,0,5.85,1.33l.3,0c.51,0,1,.08,1.44.1h0l.92,0H89.78Z"/></g></g></svg>