<svg xmlns="http://www.w3.org/2000/svg" viewBox="0 0 200 200"><defs><style>.cls-1{isolation:isolate;}.cls-2{opacity:0;}.cls-3{fill:#ffd300;}.cls-4{fill:#3d3d3d;}.cls-12,.cls-5{fill:#efefef;}.cls-11,.cls-5{mix-blend-mode:multiply;}.cls-6{fill:#f4f2e7;}.cls-7{fill:#f0f0f0;}.cls-8{fill:#fff;}.cls-9{fill:#00adff;}.cls-10{fill:#f0bc00;}</style></defs><g class="cls-1"><g id="Layer_2" data-name="Layer 2"><rect class="cls-2" width="200" height="200"/></g><g id="Layer_1" data-name="Layer 1"><rect class="cls-2" width="200" height="200"/><rect class="cls-3" x="27.18" y="49.01" width="103.33" height="63.88" rx="7.92" transform="translate(-15.74 19.11) rotate(-12.58)"/><rect class="cls-4" x="23.75" y="59.73" width="103.33" height="11.66" transform="translate(-12.47 18) rotate(-12.58)"/><path class="cls-5" d="M124,46.26,134.5,93.13a7.91,7.91,0,0,1-6,9.46L46.59,120.87c31.73-21.39,55.91-49.61,69.5-80.81A7.92,7.92,0,0,1,124,46.26Z"/><rect class="cls-6" x="32.45" y="76.74" width="83.2" height="10.49" transform="translate(-16.08 18.1) rotate(-12.58)"/><path class="cls-7" d="M58.33,113.17,50,115a6,6,0,0,1-7.16-4.55h0a6,6,0,0,1,4.54-7.16l8.38-1.87A6,6,0,0,1,62.87,106h0A6,6,0,0,1,58.33,113.17Z"/><path class="cls-4" d="M41.62,90.7,43,90.39l3.32-.74,4-.89L53.8,88l1.69-.37h0a1.44,1.44,0,1,0-.63-2.81l-1.38.3-3.31.74-4,.9-3.47.77c-.56.13-1.13.24-1.69.38h0a1.44,1.44,0,1,0,.62,2.81Z"/><path class="cls-4" d="M62.35,86.08l1.38-.31,1.67-.37,1.1-.25L68,84.81c.56-.13,1.13-.24,1.69-.38h0a1.44,1.44,0,1,0-.63-2.82l-1.38.31-1.37.31-1.1.24-1.82.41c-.57.12-1.13.24-1.69.38h0a1.44,1.44,0,0,0,.63,2.82Z"/><path class="cls-8" d="M125,90l-1.34.3-3.61.81-5.36,1.19-6.54,1.46-7.14,1.59L93.79,97l-6.72,1.5-5.7,1.27-4.09.92-1.94.43-.08,0a1.44,1.44,0,1,1-.63-2.82L76,98l3.62-.8L85,96l6.54-1.46L98.63,93l7.25-1.62,6.72-1.5,5.7-1.27,4.09-.92,1.94-.43.09,0A1.44,1.44,0,0,1,125,90Z"/><path class="cls-8" d="M97.72,103.31l-1.38.31-3.32.74-4,.9-3.47.77-1.69.38h0a1.44,1.44,0,1,1-.63-2.81l1.38-.31,3.32-.74,4-.9,3.47-.77,1.69-.38h0a1.44,1.44,0,0,1,.63,2.81Z"/><path class="cls-8" d="M126.58,96.87l-2,.46-4.87,1.08-5.86,1.31-5.07,1.13c-.82.19-1.65.38-2.47.55h0a1.47,1.47,0,0,1-1.72-1.09,1.49,1.49,0,0,1,1.1-1.73l2-.45,4.87-1.08,5.87-1.31,5.06-1.13c.83-.19,1.65-.39,2.47-.55h0a1.44,1.44,0,0,1,.63,2.81Z"/><path class="cls-9" d="M176.8,106.92l-10.59,46.84a7.9,7.9,0,0,1-.72,2,8.06,8.06,0,0,1-1.56,2.05,8,8,0,0,1-6.64,2.08l-.56-.1L71.4,140.45a7.92,7.92,0,0,1-6-9.48L76,84.12a7.92,7.92,0,0,1,9.47-6l85.33,19.3A7.92,7.92,0,0,1,176.8,106.92Z"/><path class="cls-5" d="M118.76,151.16,71.4,140.45a7.92,7.92,0,0,1-6-9.48L76,84.12a7.92,7.92,0,0,1,9.47-6L95.9,80.5C92.52,105.56,101.35,130.65,118.76,151.16Z"/><rect class="cls-3" x="81.39" y="93.83" width="12.62" height="17.88" rx="4.11" transform="translate(-31.89 165.64) rotate(-77.26)"/><path class="cls-10" d="M89.47,103.42a3,3,0,1,0-3.65-.82l.18-.8a3,3,0,1,0,3.65.82.6.6,0,0,0-.8-.18.58.58,0,0,0-.18.8,1.85,1.85,0,0,1,0,2.35,1.81,1.81,0,0,1-3.2-.93,1.86,1.86,0,0,1,1.1-1.88.58.58,0,0,0,.18-.8,1.85,1.85,0,0,1,0-2.35,1.81,1.81,0,0,1,3.19.93,1.84,1.84,0,0,1-1.09,1.88.58.58,0,0,0-.18.8A.59.59,0,0,0,89.47,103.42Z"/><path class="cls-10" d="M93.58,99.55q-.87,3.78-1.72,7.58l-.24,1.07a.58.58,0,0,0,1.13.27l1.71-7.58.25-1.08a.58.58,0,0,0-1.13-.26Z"/><path class="cls-10" d="M90.34,101.86l3.14.71a.58.58,0,0,0,.27-1.13l-3.14-.71a.58.58,0,0,0-.27,1.13Z"/><path class="cls-10" d="M89.51,105.54l3.14.71a.58.58,0,0,0,.27-1.13l-3.14-.71a.58.58,0,0,0-.27,1.13Z"/><path class="cls-10" d="M82.64,97.07l-1.71,7.58-.24,1.08a.58.58,0,0,0,1.13.27l1.71-7.58.24-1.08a.58.58,0,0,0-1.13-.27Z"/><path class="cls-10" d="M86,99.68,82.82,99a.58.58,0,0,0-.27,1.13l3.14.71A.58.58,0,0,0,86,99.68Z"/><path class="cls-10" d="M85.12,103.36,82,102.65a.58.58,0,0,0-.27,1.13l3.13.71a.58.58,0,0,0,.27-1.13Z"/><g class="cls-11"><path class="cls-12" d="M147.18,150.53l-1.52,6.71-9.35-2.11c-.14-.29-.27-.58-.4-.87l-.08-.18,0-.12a1.42,1.42,0,0,1-.08-.18l-.12-.31c-.12-.3-.24-.62-.35-.93-.3-.86-.56-1.74-.79-2.65A42.5,42.5,0,0,1,147.18,150.53Z"/><path class="cls-12" d="M133.93,147.36a45.38,45.38,0,0,1,13.81.66l2.72-12-16.12-3.65A42,42,0,0,0,133.93,147.36Z"/><path class="cls-12" d="M144.35,112.23c-.64.64-1.25,1.33-1.85,2a42.86,42.86,0,0,0,11.76,4.9l2.83-12.48C152.9,106.21,148.42,108.14,144.35,112.23Z"/><path class="cls-12" d="M134.85,130.08,151,133.72l2.72-12a45.48,45.48,0,0,1-12.76-5.35A42.28,42.28,0,0,0,134.85,130.08Z"/><path class="cls-12" d="M133.5,154.49l-3.9-.88a29.9,29.9,0,0,1-1.82-2.45,39.81,39.81,0,0,1,4.36-1,30.85,30.85,0,0,0,.91,3.1c0,.11.07.21.11.31l0,0a1,1,0,0,0,0,.16v0l.06.15h0a.49.49,0,0,0,0,.11l0,.09Z"/><path class="cls-12" d="M142.71,110.6a24,24,0,0,1,5.47-4.2A28.87,28.87,0,0,0,137,110.26a39.12,39.12,0,0,0,3.52,2.75A31.35,31.35,0,0,1,142.71,110.6Z"/><path class="cls-12" d="M139,115.07a40.11,40.11,0,0,1-4.19-3.34,28.64,28.64,0,0,0-10.91,15.87l8.68,2A44.42,44.42,0,0,1,139,115.07Z"/><path class="cls-12" d="M174.5,117.1l-.56,2.46c-.78.18-1.58.33-2.38.47a30.29,30.29,0,0,0-.91-3.11,24.15,24.15,0,0,0-3.13-6.15A28.76,28.76,0,0,1,174.5,117.1Z"/><path class="cls-12" d="M132.08,131.83l-8.68-2a28.71,28.71,0,0,0,3,19,40.32,40.32,0,0,1,5.22-1.21A44.57,44.57,0,0,1,132.08,131.83Z"/><path class="cls-12" d="M173.32,122.32l-.84,3.73c-.09-1.19-.22-2.36-.41-3.5Z"/><path class="cls-12" d="M163.88,157.73l.05,0a7.92,7.92,0,0,1-2.8,1.71c.09-.08.17-.17.26-.26h0l.21-.23.24-.26c.08-.09.17-.18.24-.27l.27-.3a1.46,1.46,0,0,0,.16-.19,1.07,1.07,0,0,0,.14-.16l.25-.29.24-.3.41.29h0l.24.18Z"/><path class="cls-12" d="M166.56,152.18v0l-.36,1.6a7.9,7.9,0,0,1-.72,2l-.36-.26-.44-.31c.25-.35.5-.72.73-1.09.06-.08.11-.17.17-.26l.11-.18.21-.34.18-.29.06-.1c0-.09.11-.18.16-.28l.07-.12Z"/><path class="cls-12" d="M168.85,140.14l-16.12-3.64-2.73,12a45.48,45.48,0,0,1,12.76,5.35A42.28,42.28,0,0,0,168.85,140.14Z"/><path class="cls-12" d="M169.77,122.86A45.39,45.39,0,0,1,156,122.2l-2.72,12,16.12,3.64A42,42,0,0,0,169.77,122.86Z"/><path class="cls-12" d="M168.46,117.68c-1.91-5.44-5.12-9.11-9.11-10.47l-2.82,12.48a42.42,42.42,0,0,0,12.72.64C169,119.42,168.76,118.54,168.46,117.68Z"/><path class="cls-12" d="M161.2,155.94c-.6.72-1.21,1.41-1.85,2.05l-.26.25-.2.2-.2.19h0l-.17.15-.2.18a1.8,1.8,0,0,1-.2.19l-.5.43-.15.12-.17.14-.56-.1-8.81-2,1.52-6.71A42.73,42.73,0,0,1,161.2,155.94Z"/><path class="cls-12" d="M137,110.26a39.12,39.12,0,0,0,3.52,2.75,31.35,31.35,0,0,1,2.16-2.41,24.25,24.25,0,0,1,5.47-4.2A28.87,28.87,0,0,0,137,110.26Zm-2.21,1.47a28.64,28.64,0,0,0-10.91,15.87l8.68,2a44.42,44.42,0,0,1,6.42-14.5A40.11,40.11,0,0,1,134.82,111.73Zm-2.75,20.1-8.67-2a28.71,28.71,0,0,0,3,19,42.08,42.08,0,0,1,5.22-1.22A44.75,44.75,0,0,1,132.07,131.83Zm1.28,22.28a.49.49,0,0,1,0-.11h0l-.06-.15v0a1,1,0,0,1,0-.16l0,0c0-.1-.07-.2-.11-.31a30.85,30.85,0,0,1-.91-3.1,39.81,39.81,0,0,0-4.36,1,29.9,29.9,0,0,0,1.82,2.45l3.9.88-.12-.29Zm1-21.77a42,42,0,0,0-.41,15,45.38,45.38,0,0,1,13.81.66l2.72-12Zm6.6-16a42.28,42.28,0,0,0-6.09,13.74L151,133.72l2.72-12A45.19,45.19,0,0,1,140.94,116.34Zm3.41-4.11c-.64.64-1.25,1.33-1.85,2a42.86,42.86,0,0,0,11.76,4.9l2.83-12.48C152.9,106.21,148.42,108.14,144.35,112.23Zm23.17-1.46a24.15,24.15,0,0,1,3.13,6.15,30.29,30.29,0,0,1,.91,3.11c.8-.14,1.6-.29,2.38-.47l.56-2.46A28.76,28.76,0,0,0,167.52,110.77Zm.94,6.92c-1.91-5.45-5.12-9.12-9.11-10.48l-2.82,12.48a42.42,42.42,0,0,0,12.72.64A27,27,0,0,0,168.46,117.69Zm1.31,5.17A45.39,45.39,0,0,1,156,122.2l-2.72,12,16.12,3.64A42,42,0,0,0,169.77,122.86Zm-17,13.64-2.73,12a45.48,45.48,0,0,1,12.76,5.35,42.28,42.28,0,0,0,6.09-13.74ZM149.44,151l-1.52,6.71,8.81,2,.56.1.17-.14.15-.12.5-.43a1.8,1.8,0,0,0,.2-.19l.2-.18.17-.15h0l.2-.19.2-.2.26-.25c.64-.64,1.25-1.33,1.85-2.05A42.73,42.73,0,0,0,149.44,151Zm14.44,6.69-.07,0-.24-.18h0l-.41-.29-.24.3-.25.29a1.07,1.07,0,0,1-.14.16,1.46,1.46,0,0,1-.16.19l-.27.3c-.07.09-.16.18-.24.27l-.24.26-.21.23h0c-.09.09-.17.18-.26.26a7.92,7.92,0,0,0,2.8-1.71Zm2.68-5.55-.18.31-.07.12c-.05.1-.11.19-.16.28l-.06.1-.18.29-.21.34-.11.18c-.06.09-.11.18-.17.26-.23.37-.48.74-.73,1.09l.44.31.36.26a7.9,7.9,0,0,0,.72-2l.36-1.6Zm5.51-29.63c.19,1.14.32,2.31.41,3.5l.84-3.73Zm-37.62,27.34c.23.91.49,1.79.79,2.65.11.31.23.63.35.93l.12.31a1.42,1.42,0,0,0,.08.18l0,.12.08.18c.13.29.26.58.4.87l9.35,2.11,1.52-6.71A42.5,42.5,0,0,0,134.45,149.89Z"/></g><rect class="cls-7" x="73.33" y="116.91" width="17.59" height="9.19" rx="3.62" transform="translate(28.83 -15.12) rotate(12.74)"/><rect class="cls-7" x="97.69" y="122.42" width="17.59" height="9.19" rx="3.62" transform="translate(30.64 -20.36) rotate(12.74)"/><rect class="cls-7" x="122.05" y="127.93" width="17.59" height="9.19" rx="3.62" transform="translate(32.46 -25.6) rotate(12.74)"/><rect class="cls-7" x="146.41" y="133.44" width="17.59" height="9.19" rx="3.62" transform="translate(34.27 -30.84) rotate(12.74)"/><path class="cls-12" d="M113.7,92.27l30.57,6.91A1.5,1.5,0,0,1,145.4,101h0a1.5,1.5,0,0,1-1.79,1.12L113,95.18a1.5,1.5,0,0,1-1.12-1.79h0A1.49,1.49,0,0,1,113.7,92.27Z"/><path class="cls-7" d="M87.71,134.7l-14.5-3.28a1.52,1.52,0,0,0-1.81,1.05,1.49,1.49,0,0,0,1.11,1.85l14.55,3.29a1.49,1.49,0,0,0,1.78-1.13h0A1.49,1.49,0,0,0,87.71,134.7Z"/><path class="cls-7" d="M103.7,138.31l-6.34-1.43A1.49,1.49,0,0,0,95.58,138h0a1.49,1.49,0,0,0,1.12,1.78l6.38,1.44a1.49,1.49,0,0,0,1.8-1.19A1.53,1.53,0,0,0,103.7,138.31Z"/><path class="cls-12" d="M151.12,100.73l13.14,3a1.5,1.5,0,0,1,1.13,1.79h0a1.49,1.49,0,0,1-1.78,1.12l-13.14-3a1.49,1.49,0,0,1-1.13-1.78h0A1.49,1.49,0,0,1,151.12,100.73Z"/></g></g></svg>